# xmcd
# Track frame offsets:
# 150
# 13568
# 30450
# 42167
# 54190
# 68108
# 85656
# 98084
# 110356
# 124445
# 135779
# 146325
# 158641
# 171260
#
# Disc length: 2497 seconds
# Revision: 0
# Processed by: cddbd v1.4PL0 Copyright (c) Steve Scherf et al.
# Submitted via: VisiTrax 2.9.5.181 - For more info visit www.synapsa.com
#
DISCID=a509bf0e
DTITLE=Merle Haggard - Lovin' And Leavin'
DYEAR=1999
DGENRE=Country
TTITLE0=Holding Things Together
TTITLE1=Today I Started Loving You Again
TTITLE2=Turning Off A Memory
TTITLE3=Things Aren't Funny Anymore
TTITLE4=I Threw Away The Rose
TTITLE5=I Think I'll Just Stay Here And Drink
TTITLE6=If We Make It Through December
TTITLE7=Everybody's Had The Blues
TTITLE8=Always Wanting You
TTITLE9=My Friends Are Gonna Be Strangers
TTITLE10=Someday We'll Look Back
TTITLE11=The Bottle Let Me Down
TTITLE12=It's Been A Great Afternoon
TTITLE13=It's Not Love (But It's Not Bad)
EXTD=
EXTT0=
EXTT1=
EXTT2=
EXTT3=
EXTT4=
EXTT5=
EXTT6=
EXTT7=
EXTT8=
EXTT9=
EXTT10=
EXTT11=
EXTT12=
EXTT13=
PLAYORDER=
